<mxfile host="app.diagrams.net" modified="2023-05-06T23:42:54.719Z" agent="Mozilla/5.0 (Windows NT 10.0; Win64; x64) AppleWebKit/537.36 (KHTML, like Gecko) Chrome/112.0.0.0 Safari/537.36" etag="HsnEuIijLrlCNlmF1E1b" version="21.2.9" type="github">
  <diagram name="Page-1" id="eQBMagEIWrv4YlKGxzp6">
    <mxGraphModel dx="808" dy="447" grid="1" gridSize="10" guides="1" tooltips="1" connect="1" arrows="1" fold="1" page="1" pageScale="1" pageWidth="850" pageHeight="1100" math="0" shadow="0">
      <root>
        <mxCell id="0" />
        <mxCell id="1" parent="0" />
        <mxCell id="uMPThmOzlP2LcuOly7Mx-22" style="edgeStyle=orthogonalEdgeStyle;rounded=0;orthogonalLoop=1;jettySize=auto;html=1;exitX=0.5;exitY=1;exitDx=0;exitDy=0;entryX=0.5;entryY=0;entryDx=0;entryDy=0;" edge="1" parent="1" source="uMPThmOzlP2LcuOly7Mx-1" target="uMPThmOzlP2LcuOly7Mx-3">
          <mxGeometry relative="1" as="geometry" />
        </mxCell>
        <mxCell id="uMPThmOzlP2LcuOly7Mx-1" value="Loading Screen" style="rounded=0;whiteSpace=wrap;html=1;" vertex="1" parent="1">
          <mxGeometry x="310" y="70" width="120" height="60" as="geometry" />
        </mxCell>
        <mxCell id="uMPThmOzlP2LcuOly7Mx-23" style="edgeStyle=orthogonalEdgeStyle;rounded=0;orthogonalLoop=1;jettySize=auto;html=1;exitX=0.5;exitY=1;exitDx=0;exitDy=0;entryX=0.5;entryY=0;entryDx=0;entryDy=0;" edge="1" parent="1" source="uMPThmOzlP2LcuOly7Mx-3" target="uMPThmOzlP2LcuOly7Mx-6">
          <mxGeometry relative="1" as="geometry" />
        </mxCell>
        <mxCell id="uMPThmOzlP2LcuOly7Mx-3" value="Login side" style="rounded=0;whiteSpace=wrap;html=1;" vertex="1" parent="1">
          <mxGeometry x="310" y="150" width="120" height="60" as="geometry" />
        </mxCell>
        <mxCell id="uMPThmOzlP2LcuOly7Mx-24" style="edgeStyle=orthogonalEdgeStyle;rounded=0;orthogonalLoop=1;jettySize=auto;html=1;" edge="1" parent="1" source="uMPThmOzlP2LcuOly7Mx-6" target="uMPThmOzlP2LcuOly7Mx-8">
          <mxGeometry relative="1" as="geometry" />
        </mxCell>
        <mxCell id="uMPThmOzlP2LcuOly7Mx-25" style="edgeStyle=orthogonalEdgeStyle;rounded=0;orthogonalLoop=1;jettySize=auto;html=1;entryX=0.449;entryY=0.022;entryDx=0;entryDy=0;entryPerimeter=0;" edge="1" parent="1" source="uMPThmOzlP2LcuOly7Mx-6" target="uMPThmOzlP2LcuOly7Mx-7">
          <mxGeometry relative="1" as="geometry">
            <Array as="points">
              <mxPoint x="370" y="310" />
              <mxPoint x="274" y="310" />
            </Array>
          </mxGeometry>
        </mxCell>
        <mxCell id="uMPThmOzlP2LcuOly7Mx-6" value="Vent på input" style="rounded=1;whiteSpace=wrap;html=1;" vertex="1" parent="1">
          <mxGeometry x="310" y="230" width="120" height="60" as="geometry" />
        </mxCell>
        <mxCell id="uMPThmOzlP2LcuOly7Mx-29" style="edgeStyle=orthogonalEdgeStyle;rounded=0;orthogonalLoop=1;jettySize=auto;html=1;exitX=0.5;exitY=1;exitDx=0;exitDy=0;entryX=0.5;entryY=0;entryDx=0;entryDy=0;" edge="1" parent="1" source="uMPThmOzlP2LcuOly7Mx-7" target="uMPThmOzlP2LcuOly7Mx-11">
          <mxGeometry relative="1" as="geometry" />
        </mxCell>
        <mxCell id="uMPThmOzlP2LcuOly7Mx-7" value="Log In" style="rounded=0;whiteSpace=wrap;html=1;" vertex="1" parent="1">
          <mxGeometry x="220" y="320" width="120" height="60" as="geometry" />
        </mxCell>
        <mxCell id="uMPThmOzlP2LcuOly7Mx-26" style="edgeStyle=orthogonalEdgeStyle;rounded=0;orthogonalLoop=1;jettySize=auto;html=1;exitX=0.5;exitY=1;exitDx=0;exitDy=0;entryX=0.5;entryY=0;entryDx=0;entryDy=0;" edge="1" parent="1" source="uMPThmOzlP2LcuOly7Mx-8" target="uMPThmOzlP2LcuOly7Mx-9">
          <mxGeometry relative="1" as="geometry" />
        </mxCell>
        <mxCell id="uMPThmOzlP2LcuOly7Mx-8" value="Opret Bruger" style="rounded=0;whiteSpace=wrap;html=1;" vertex="1" parent="1">
          <mxGeometry x="390" y="320" width="120" height="60" as="geometry" />
        </mxCell>
        <mxCell id="uMPThmOzlP2LcuOly7Mx-27" style="edgeStyle=orthogonalEdgeStyle;rounded=0;orthogonalLoop=1;jettySize=auto;html=1;exitX=0.5;exitY=1;exitDx=0;exitDy=0;entryX=0.5;entryY=0;entryDx=0;entryDy=0;" edge="1" parent="1" source="uMPThmOzlP2LcuOly7Mx-9" target="uMPThmOzlP2LcuOly7Mx-10">
          <mxGeometry relative="1" as="geometry" />
        </mxCell>
        <mxCell id="uMPThmOzlP2LcuOly7Mx-9" value="Vent på input" style="rounded=1;whiteSpace=wrap;html=1;" vertex="1" parent="1">
          <mxGeometry x="390" y="410" width="120" height="60" as="geometry" />
        </mxCell>
        <mxCell id="uMPThmOzlP2LcuOly7Mx-28" style="edgeStyle=orthogonalEdgeStyle;rounded=0;orthogonalLoop=1;jettySize=auto;html=1;exitX=1;exitY=0.5;exitDx=0;exitDy=0;entryX=1;entryY=0.5;entryDx=0;entryDy=0;" edge="1" parent="1" source="uMPThmOzlP2LcuOly7Mx-10" target="uMPThmOzlP2LcuOly7Mx-6">
          <mxGeometry relative="1" as="geometry" />
        </mxCell>
        <mxCell id="uMPThmOzlP2LcuOly7Mx-10" value="Tilføj bruger til database" style="rounded=0;whiteSpace=wrap;html=1;" vertex="1" parent="1">
          <mxGeometry x="390" y="490" width="120" height="60" as="geometry" />
        </mxCell>
        <mxCell id="uMPThmOzlP2LcuOly7Mx-30" style="edgeStyle=orthogonalEdgeStyle;rounded=0;orthogonalLoop=1;jettySize=auto;html=1;entryX=0.5;entryY=0;entryDx=0;entryDy=0;" edge="1" parent="1" source="uMPThmOzlP2LcuOly7Mx-11" target="uMPThmOzlP2LcuOly7Mx-12">
          <mxGeometry relative="1" as="geometry" />
        </mxCell>
        <mxCell id="uMPThmOzlP2LcuOly7Mx-11" value="Vent på input" style="rounded=1;whiteSpace=wrap;html=1;" vertex="1" parent="1">
          <mxGeometry x="220" y="410" width="120" height="60" as="geometry" />
        </mxCell>
        <mxCell id="uMPThmOzlP2LcuOly7Mx-31" style="edgeStyle=orthogonalEdgeStyle;rounded=0;orthogonalLoop=1;jettySize=auto;html=1;entryX=0.5;entryY=0;entryDx=0;entryDy=0;" edge="1" parent="1" source="uMPThmOzlP2LcuOly7Mx-12" target="uMPThmOzlP2LcuOly7Mx-14">
          <mxGeometry relative="1" as="geometry" />
        </mxCell>
        <mxCell id="uMPThmOzlP2LcuOly7Mx-45" style="edgeStyle=orthogonalEdgeStyle;rounded=0;orthogonalLoop=1;jettySize=auto;html=1;" edge="1" parent="1" source="uMPThmOzlP2LcuOly7Mx-12" target="uMPThmOzlP2LcuOly7Mx-15">
          <mxGeometry relative="1" as="geometry">
            <Array as="points">
              <mxPoint x="280" y="560" />
              <mxPoint x="420" y="560" />
            </Array>
          </mxGeometry>
        </mxCell>
        <mxCell id="uMPThmOzlP2LcuOly7Mx-46" style="edgeStyle=orthogonalEdgeStyle;rounded=0;orthogonalLoop=1;jettySize=auto;html=1;" edge="1" parent="1" source="uMPThmOzlP2LcuOly7Mx-12" target="uMPThmOzlP2LcuOly7Mx-13">
          <mxGeometry relative="1" as="geometry">
            <Array as="points">
              <mxPoint x="280" y="560" />
              <mxPoint x="130" y="560" />
            </Array>
          </mxGeometry>
        </mxCell>
        <mxCell id="uMPThmOzlP2LcuOly7Mx-12" value="Forside" style="rounded=0;whiteSpace=wrap;html=1;" vertex="1" parent="1">
          <mxGeometry x="220" y="490" width="120" height="60" as="geometry" />
        </mxCell>
        <mxCell id="uMPThmOzlP2LcuOly7Mx-13" value="Rangliste" style="rounded=0;whiteSpace=wrap;html=1;" vertex="1" parent="1">
          <mxGeometry x="70" y="570" width="120" height="60" as="geometry" />
        </mxCell>
        <mxCell id="uMPThmOzlP2LcuOly7Mx-47" style="edgeStyle=orthogonalEdgeStyle;rounded=0;orthogonalLoop=1;jettySize=auto;html=1;" edge="1" parent="1" source="uMPThmOzlP2LcuOly7Mx-14" target="uMPThmOzlP2LcuOly7Mx-12">
          <mxGeometry relative="1" as="geometry" />
        </mxCell>
        <mxCell id="uMPThmOzlP2LcuOly7Mx-14" value="Spil" style="rounded=0;whiteSpace=wrap;html=1;" vertex="1" parent="1">
          <mxGeometry x="220" y="570" width="120" height="60" as="geometry" />
        </mxCell>
        <mxCell id="uMPThmOzlP2LcuOly7Mx-34" style="edgeStyle=orthogonalEdgeStyle;rounded=0;orthogonalLoop=1;jettySize=auto;html=1;exitX=1;exitY=0.5;exitDx=0;exitDy=0;entryX=0;entryY=0.5;entryDx=0;entryDy=0;" edge="1" parent="1" source="uMPThmOzlP2LcuOly7Mx-15" target="uMPThmOzlP2LcuOly7Mx-19">
          <mxGeometry relative="1" as="geometry" />
        </mxCell>
        <mxCell id="uMPThmOzlP2LcuOly7Mx-15" value="Konto" style="rounded=0;whiteSpace=wrap;html=1;" vertex="1" parent="1">
          <mxGeometry x="360" y="570" width="120" height="60" as="geometry" />
        </mxCell>
        <mxCell id="uMPThmOzlP2LcuOly7Mx-43" style="edgeStyle=orthogonalEdgeStyle;rounded=0;orthogonalLoop=1;jettySize=auto;html=1;entryX=0.5;entryY=1;entryDx=0;entryDy=0;" edge="1" parent="1" source="uMPThmOzlP2LcuOly7Mx-18" target="uMPThmOzlP2LcuOly7Mx-15">
          <mxGeometry relative="1" as="geometry">
            <Array as="points">
              <mxPoint x="790" y="600" />
              <mxPoint x="790" y="720" />
              <mxPoint x="420" y="720" />
            </Array>
          </mxGeometry>
        </mxCell>
        <mxCell id="uMPThmOzlP2LcuOly7Mx-18" value="Udbetal penge" style="rounded=0;whiteSpace=wrap;html=1;" vertex="1" parent="1">
          <mxGeometry x="640" y="570" width="120" height="60" as="geometry" />
        </mxCell>
        <mxCell id="uMPThmOzlP2LcuOly7Mx-35" style="edgeStyle=orthogonalEdgeStyle;rounded=0;orthogonalLoop=1;jettySize=auto;html=1;exitX=1;exitY=0.5;exitDx=0;exitDy=0;entryX=0;entryY=0.5;entryDx=0;entryDy=0;" edge="1" parent="1" source="uMPThmOzlP2LcuOly7Mx-19" target="uMPThmOzlP2LcuOly7Mx-18">
          <mxGeometry relative="1" as="geometry" />
        </mxCell>
        <mxCell id="uMPThmOzlP2LcuOly7Mx-37" style="edgeStyle=orthogonalEdgeStyle;rounded=0;orthogonalLoop=1;jettySize=auto;html=1;exitX=1;exitY=0.5;exitDx=0;exitDy=0;entryX=0;entryY=0.5;entryDx=0;entryDy=0;" edge="1" parent="1" source="uMPThmOzlP2LcuOly7Mx-19" target="uMPThmOzlP2LcuOly7Mx-20">
          <mxGeometry relative="1" as="geometry">
            <Array as="points">
              <mxPoint x="630" y="600" />
              <mxPoint x="630" y="520" />
            </Array>
          </mxGeometry>
        </mxCell>
        <mxCell id="uMPThmOzlP2LcuOly7Mx-39" style="edgeStyle=orthogonalEdgeStyle;rounded=0;orthogonalLoop=1;jettySize=auto;html=1;exitX=1;exitY=0.5;exitDx=0;exitDy=0;entryX=0;entryY=0.5;entryDx=0;entryDy=0;" edge="1" parent="1" source="uMPThmOzlP2LcuOly7Mx-19" target="uMPThmOzlP2LcuOly7Mx-21">
          <mxGeometry relative="1" as="geometry">
            <Array as="points">
              <mxPoint x="630" y="600" />
              <mxPoint x="630" y="670" />
            </Array>
          </mxGeometry>
        </mxCell>
        <mxCell id="uMPThmOzlP2LcuOly7Mx-19" value="Vent på input" style="rounded=1;whiteSpace=wrap;html=1;" vertex="1" parent="1">
          <mxGeometry x="500" y="570" width="120" height="60" as="geometry" />
        </mxCell>
        <mxCell id="uMPThmOzlP2LcuOly7Mx-44" style="edgeStyle=orthogonalEdgeStyle;rounded=0;orthogonalLoop=1;jettySize=auto;html=1;entryX=0.5;entryY=1;entryDx=0;entryDy=0;" edge="1" parent="1" source="uMPThmOzlP2LcuOly7Mx-20" target="uMPThmOzlP2LcuOly7Mx-15">
          <mxGeometry relative="1" as="geometry">
            <Array as="points">
              <mxPoint x="790" y="520" />
              <mxPoint x="790" y="720" />
              <mxPoint x="420" y="720" />
            </Array>
          </mxGeometry>
        </mxCell>
        <mxCell id="uMPThmOzlP2LcuOly7Mx-20" value="Indsæt penge" style="rounded=0;whiteSpace=wrap;html=1;" vertex="1" parent="1">
          <mxGeometry x="640" y="490" width="120" height="60" as="geometry" />
        </mxCell>
        <mxCell id="uMPThmOzlP2LcuOly7Mx-40" style="edgeStyle=orthogonalEdgeStyle;rounded=0;orthogonalLoop=1;jettySize=auto;html=1;entryX=0.5;entryY=1;entryDx=0;entryDy=0;" edge="1" parent="1" source="uMPThmOzlP2LcuOly7Mx-21" target="uMPThmOzlP2LcuOly7Mx-15">
          <mxGeometry relative="1" as="geometry">
            <Array as="points">
              <mxPoint x="790" y="670" />
              <mxPoint x="790" y="720" />
              <mxPoint x="420" y="720" />
            </Array>
          </mxGeometry>
        </mxCell>
        <mxCell id="uMPThmOzlP2LcuOly7Mx-21" value="Doner Penge" style="rounded=0;whiteSpace=wrap;html=1;" vertex="1" parent="1">
          <mxGeometry x="640" y="640" width="120" height="60" as="geometry" />
        </mxCell>
      </root>
    </mxGraphModel>
  </diagram>
</mxfile>
